<?xml version="1.0" encoding="utf-8"?>
<!-- Generator: Adobe Illustrator 25.2.1, SVG Export Plug-In . SVG Version: 6.00 Build 0)  -->
<svg version="1.1" id="Слой_1" xmlns="http://www.w3.org/2000/svg" xmlns:xlink="http://www.w3.org/1999/xlink" x="0px" y="0px"
	 viewBox="0 0 1260.1217 534.65302" style="enable-background:new 0 0 1260.1217 534.65302;" xml:space="preserve">
<style type="text/css">
	.st0{fill:#FFFFFF;}
</style>
<g>
	<path class="st0" d="M1212.94128,0c0.86255,1.94259,1.13489,3.62713-1.51184,4.36992
		c-18.45874,5.18024-34.41064,15.17256-49.54858,26.69352c-118.23535,97.25633-188.62323,242.54315-263.0329,371.84589
		c-2.01404-3.78372,1.65698-6.96649,2.71655-10.49039c3.67883-6.79654-12.14069-4.01636-7.9314-12.57782
		c27.83673-72.35986,50.25385-147.20325,63.81952-223.70444c3.61383-30.72905,18.41016-98.62407-16.8913-113.51065
		c-24.38562-5.93597-47.39154,11.11249-59.28619,31.56574c-27.54999,48.96567-31.58264,112.09468-14.28339,165.33188
		c1.54004,7.05814,9.66168,13.41821,7.83777,20.70135c-43.8399,22.1214-22.80774-142.23192-10.55798-161.44702
		c5.29285-15.37724,12.92352-29.46452,24.14618-41.3193c21.60938-26.09446,70.02557-28.97676,83.02875,6.94514
		c14.76715,40.62283,5.40863,85.57215-1.79944,126.89234c-7.85132,46.82663-26.01843,92.02129-36.20337,137.49724
		C993.92841,229.97794,1099.27722,33.13917,1212.94128,0z"/>
	<path class="st0" d="M344.87881,39.77451c5.20416,21.49968-0.95172,45.12671-21.93799,55.25761
		c-9.47034,2.5423-2.77417,17.50954-4.72412,25.60051c14.58282-14.85383,22.86172-47.07558,48.65765-38.51257
		c11.49182,15.8095-31.33871,64.36574-38.79532,83.83032c-14.39474,18.34644-16.50864,24.63075-13.09149,47.83797
		c1.41281,56.12923,0.39215,112.636,2.44064,168.58589c2.62051,15.58383-0.46503,34.30594-0.4863,50.99615
		c3.2485,10.43521,13.11603,18.29263,18.62195,27.84848c5.1221,5.68817,1.81088,14.31921,7.34036,19.66843
		c7.3237,6.33234-5.22415,9.58179-4.02307,16.53973c0.46265,6.31363-2.7952,10.26468-7.58878,13.44443
		c-52.08517,29.37811-113.28134,15.88464-169.85309,22.20526c-35.45686,5.10614-70.33239-3.2926-105.06657-9.54181
		c-22.65626-5.21039-48.89858-20.19507-42.77759-47.41815c1.68865-21.54138,29.16718-31.25049,29.78081-52.74161
		c-2.22803-52.86508-2.73442-105.7926-2.4786-158.70065c0.82327-51.10654,1.46079-102.21906,0.74719-153.32791
		C41.31667,77.64177-10.87121,73.01632,2.05884,34.51163C17.278-6.36326,230.73389-4.86528,271.64517,6.27005
		C282.09344,11.03252,366.86346,21.87806,344.87881,39.77451z M272.03955,191.42412
		c-0.73346-3.25735,1.24673-9.21146-3.48849-9.1707c-16.94002-0.72385-33.86943-1.90715-50.81508-2.22266
		c-48.39986-0.67058-97.25148,3.7112-143.93381,17.23099c-4.38061,1.61829-0.56269,7.95612-1.06818,11.65128
		C137.78299,191.56795,205.30782,192.05702,272.03955,191.42412z M262.72086,252.37927
		c0.95663-2.46529,3.13181-11.18964-1.21347-10.69997c-60.83365,6.88493-121.65929,16.87575-179.73285,37.06932
		c-8.55961,1.95956-5.23931,9.60782-5.87465,16.48166c56.46889-25.31308,118.31332-30.5687,178.42545-41.40546
		c3.49376-0.35657,1.80153-4.82092,2.89226-7.25856 M71.3762,159.31206c69.89651-8.75682,139.82745-9.48341,210.07361-7.22581
		c3.20401,0.90742,3.68631-5.3996,0.19873-5.51561c-11.06485-1.12221-22.0932-3.08684-33.17552-3.44504
		c-59.01703-0.89389-118.09259-0.00519-177.0968,1.55112C71.3762,149.60661,71.3762,154.24507,71.3762,159.31206z M106.657,29.26873
		c55.21489-2.92219,110.48978-1.12369,165.5602,3.66512c6.95026,2.02102,2.84372-6.21581,8.33551-6.65437
		c2.46988,10.35903,10.89508,12.37714,8.96222-0.55117c-59.53624-12.383-120.97116-9.48736-181.25168-5.57052
		C103.80744,20.51178,107.01067,26.18581,106.657,29.26873z M281.72186,473.64963
		c-2.00757-17.2547-55.51405-5.10007-70.36142-8.6048c-28.32787-0.772-56.62239-3.13327-84.8694-5.4538
		c-5.22903,0.13156-8.58657,6.10724-10.6194,10.51755C170.75803,480.38702,226.28969,475.7973,281.72186,473.64963z
		 M170.96448,72.82697c23.06607-0.26876,46.13229,1.05396,69.16776,2.16489c6.44551-1.39301,10.73247-9.62868,13.78119-15.32176
		c-28.13379-4.19883-55.90137-5.92854-84.01613-7.20131C170.2614,59.41474,170.60643,65.99634,170.96448,72.82697z
		 M104.44814,467.38205c0.2365,0.17358,0.47302,0.3472,0.70953,0.52081c47.82434-54.29184,79.49318-123.37,123.33195-181.29721
		c-0.15164-0.24149-0.30328-0.483-0.45491-0.72452c-4.20561,1.51468-9.28915,1.20673-11.51688,5.82388
		c-18.45299,28.45145-37.02367,56.82431-55.52577,85.2431C142.15764,407.09064,120.67849,435.67957,104.44814,467.38205z
		 M69.46738,114.44798c71.21278-8.19096,144.86588-2.21593,214.80945,1.50507c-2.45755-4.80754-8.70346-4.37922-13.30777-4.9529
		c-53.08846-6.90216-106.48582-10.82395-159.90103-5.55953C102.58677,108.34047,67.18034,102.46727,69.46738,114.44798z
		 M71.29608,179.04135c53.67686-16.65822,109.73824-17.06602,165.24837-13.78636c7.28464-1.5137,34.43929,6.04405,34.62996-2.75932
		c-64.95238-9.49138-133.8134-1.30916-199.87833,2.0907C71.29608,169.46809,71.29608,174.0961,71.29608,179.04135z
		 M71.31716,136.68427c52.55048-0.80042,105.0711-2.59778,157.62793-2.32166c5.60309-2.52795,64.26074,7.38448,53.36441-1.54272
		c-60.85895-5.05229-122.98343-7.19302-184.10312-2.25586C91.65686,132.6772,72.64335,129.1524,71.31716,136.68427z
		 M99.21769,222.20517c0.07749,0.37,0.15498,0.74001,0.23248,1.11c48.48584,2.16374,96.87964,7.35138,145.46132,6.20662
		c5.25319,0.64088,6.16273-3.84723,8.69342-7.80199C201.8136,228.23079,149.55112,206.85597,99.21769,222.20517z
		 M288.64331,100.5141c0.09753-0.2802,0.19501-0.56042,0.29251-0.84063c-58.9993-17.52162-160.6091-14.92316-219.5666,2.48042
		c0.10676,0.24847,0.21352,0.49695,0.32027,0.74542C142.56366,91.21869,215.5719,92.75369,288.64331,100.5141z M162.34296,358.53635
		c-34.99947-1.23663-69.65182-2.90451-104.31371-8.62c0.18862,3.54379,0.34846,6.54691,0.51399,9.65677
		c31.31739,5.12518,62.86049,8.18277,94.46575,10.77905C158.21509,370.11896,160.3203,363.22858,162.34296,358.53635z
		 M269.97186,124.09019c-0.00989-0.17857-0.01974-0.35713-0.02966-0.53568c-11.22162-2.69952-224.60562-16.00935-195.63229,4.21063
		C139.3223,121.87205,204.77586,121.2994,269.97186,124.09019z M80.38588,322.69278
		c35.89573-0.96497,71.77957-2.41119,107.62653-4.58426c4.5847-0.08417,5.30333-5.98181,8.26334-9.26199
		C157.53067,314.66641,115.05801,301.34418,80.38588,322.69278z M58.35254,365.57642
		c1.16461,4.78482-2.87846,13.59436,2.94802,14.72937c9.91841,1.05243,19.8137,2.40292,29.75356,3.12491
		c13.83424-1.51144,53.98259,9.81818,59.3483-5.05087C119.34789,376.50607,88.92574,371.90076,58.35254,365.57642z
		 M326.47324,129.12086c-21.59366,32.27975-45.05396,63.31433-61.85571,98.62666
		c12.63177-17.97318,22.08215-38.11913,36.43622-54.90282c0.2244,0.14058,0.44876,0.28117,0.67316,0.42177
		c-11.24985,18.9149-22.49966,37.82983-33.74951,56.74475c4.35135,0.07085,7.78271-0.28159,9.6832-4.39059
		c20.69424-33.13028,42.31326-65.73891,62.2742-99.30956c-8.89633,11.37342-13.83484,25.82792-27.34995,34.14954
		C315.98022,149.04446,321.24426,139.09578,326.47324,129.12086z M257.16275,369.15359
		c-1.00479-5.09735,3.30652-16.53391-4.84869-15.11282c-18.56839,1.53989-37.14153,3.00839-55.71097,4.52335
		c-5.56783,1.11349-7.56427,8.09534-10.72095,12.6311C209.82103,371.19186,233.30247,371.90829,257.16275,369.15359z
		 M72.72209,220.01799c61.76768-16.11971,125.92741-18.64682,189.63771-19.43999c0.0126-0.24776,0.02521-0.49548,0.03781-0.74324
		C239.62947,195.4463,73.99433,197.69786,72.72209,220.01799z M256.32202,259.36456
		c-59.8105,8.26691-119.95323,17.8869-176.87498,39.2056c-2.27615,0.38669-6.28091,5.2774-1.72021,4.94626
		C135.11267,281.71536,199.35767,276.97763,256.32202,259.36456z M144.71819,430.88272
		c5.78064,0.87576,154.11147-2.39941,117.42781-12.82141c-35.86983,5.06741-72.14432,6.25745-108.32776,5.29352
		C149.16205,423.20828,145.97961,425.76709,144.71819,430.88272z M147.76251,492.07312
		c-33.55944,0.87717-67.09-2.46103-100.71027-6.54456c-0.1084,1.65384-0.13251,2.47208-0.11301,4.09409
		c34.11565,7.7363,68.49852,11.97107,103.44197,13.62256C149.47021,499.35864,148.68036,495.98889,147.76251,492.07312z
		 M234.55212,237.1976c-0.0195-0.18781-0.03899-0.37561-0.05849-0.56343c-39.53825-1.26382-79.08344-2.64012-118.50422-6.33174
		c-9.56732,1.42867-39.5131-8.89917-42.56982,1.10112C126.77984,236.49062,181.14984,245.62654,234.55212,237.1976z
		 M130.14203,41.36119c0.00516,0.12375,0.01033,0.24751,0.01549,0.37126c47.49368-0.28716,95.07079-0.26098,142.25685,5.77831
		C305.67941,30.68817,137.10217,39.28092,130.14203,41.36119z M59.98399,330.82291c0.05492,0.42398,0.10983,0.84796,0.16475,1.27194
		c17.91754-1.48459,122.03707,8.07202,124.4325-6.67877C143.10657,327.85101,101.14648,326.62784,59.98399,330.82291z
		 M231.28751,171.50868c0.00104-0.37088,0.00208-0.74174,0.00311-1.11264c-39.02872,1.68842-131.69321-5.08409-159.49158,18.83324
		C123.82911,179.18269,177.41655,169.32074,231.28751,171.50868z M262.05139,208.08565
		c-32.95012,0.91324-65.57481,1.07156-98.07387,4.7101C180.86473,212.24954,258.98532,226.01932,262.05139,208.08565z
		 M206.0929,294.75211c-0.21051-0.2612-0.42102-0.52243-0.63153-0.7836c-27.7675,1.05307-55.43716,2.79376-82.01865,12.21844
		c24.39998-0.44101,48.85939-2.50165,73.28246-3.46457C201.86113,303.3172,203.40149,298.2009,206.0929,294.75211z
		 M281.47794,497.1777c-1.31015-4.0419,1.7728-13.57007-4.07983-13.07095c-11.36462,2.66708-22.72226,3.832-34.39294,4.8226
		c0,4.20798,0,8.4631,0,12.88321C255.75636,500.2764,268.34128,498.76025,281.47794,497.1777z M161.41611,406.74084
		c31.61151-2.29004,65.38921,3.44894,95.86255-4.51294c-0.10831-0.2709-0.21664-0.54184-0.32498-0.81274
		c-27.06848-0.98245-54.3186-0.25174-81.44678-0.67767C169.92455,400.10101,162.5426,399.75647,161.41611,406.74084z
		 M130.30296,411.04932c-24.67677-1.73694-48.1855-7.09613-71.74568-12.07065
		c-3.50563,13.30353,56.36776,16.67181,66.85326,18.13846C128.19292,416.64563,128.46722,413.45602,130.30296,411.04932z
		 M188.48186,448.55887c30.06621,1.41318,60.05534,1.44269,89.85973-4.74194c0.11667-1.91809,0.22186-3.64774,0.32706-5.37738
		c-0.20599-0.00812-0.41199-0.01624-0.61798-0.02432c-0.15845,0.52841-0.31693,1.05682-0.54559,1.81949
		c-0.68976-1.86472-1.2742-3.44482-1.85864-5.0249c-0.38324-0.04355-0.76651-0.08713-1.14975-0.13071
		c-1.23477,2.70267-2.46954,5.4054-3.86429,8.45828c-0.49408-2.35461-0.92435-4.40497-1.38092-6.58084
		C242.62834,443.72427,215.32619,444.42484,188.48186,448.55887z M153.22781,417.53339
		c0.06055,0.35141,0.12111,0.70282,0.18167,1.05423c32.54378,0.81845,64.94643-1.56949,97.36607-3.84543
		c2.41762-0.13977,4.9458-0.48416,7.10841-3.47079c-25.60773-0.16086-51.76767,2.17474-77.67805,1.88916
		C171.31651,414.06332,159.69193,409.20755,153.22781,417.53339z M46.9389,492.00967
		c-2.75592,17.84558,85.63277,17.81583,100.67612,18.20966C113.82339,505.77728,79.91564,502.31754,46.9389,492.00967z
		 M141.82884,53.48977c-10.16615,0.42278-19.75497,0.82153-29.88995,1.24301c5.18722,7.22404,9.25336,12.70192,14.48062,19.36826
		c3.10707,3.00254,8.39558-0.19348,12.33281,0.03416C142.99132,71.31186,137.87608,59.67708,141.82884,53.48977z
		 M176.4664,337.26816c-39.72247,2.23575-79.12917,1.46259-118.65108-0.26529
		C75.60938,340.46808,168.32068,350.53589,176.4664,337.26816z M308.94333,76.38007
		c-4.18985-11.33173-19.32199-8.48022-29.12845-12.71336c0.98907,6.10725-1.46634,10.61358-4.5625,14.77791
		c8.39362,0.31369,23.17282,10.79979,28.80411,3.03284C305.2186,79.39624,307.42212,77.91706,308.94333,76.38007z
		 M58.56477,322.90402c45.47271-22.45413,93.57288-33.66061,142.94492-43.06229
		C178.64418,281.77182,63.99115,302.92722,58.56477,322.90402z M256.66174,383.09622
		c-28.05608,3.21548-57.25237,3.43869-84.71384,8.95612c0.08299,0.24564,0.16599,0.49133,0.24898,0.73697
		c26.51213,0.18201,53.01794,0.08096,79.43097-2.53842C257.43439,389.94629,257.80966,388.81348,256.66174,383.09622z
		 M74.03747,243.78589c32.05862,1.51131,64.64509,8.58171,96.55282,2.59442c-32.15205-2.38985-64.30409-4.77971-96.55282-7.17676
		C74.03747,240.45682,74.03747,242.04538,74.03747,243.78589z M58.7244,391.97714c-0.12688,0.30328-0.25377,0.60657-0.38066,0.90985
		c23.05401,9.56049,49.06916,9.56741,73.63077,12.19318c3.62527,0.55939,3.91211-3.52866,5.88364-6.06631
		C111.1506,397.44489,84.77247,396.64197,58.7244,391.97714z M58.54728,408.99042c-0.26773,0.27689-0.53545,0.55377-0.80318,0.83063
		c4.90777,7.34592,68.02338,30.17044,64.52982,11.88C100.44508,420.83337,79.05896,417.16248,58.54728,408.99042z
		 M74.64234,257.2641c17.11471,3.2486,54.56121,1.30551,60.24299-2.98146c-19.96207-1.41338-40.0441-2.83522-60.24299-4.26537
		C74.64234,252.49521,74.64234,254.8002,74.64234,257.2641z M58.22496,419.50436
		c1.85005,14.05472,20.16377,11.00809,30.17944,15.15305c8.56577,0.26385,19.58871,7.51172,26.89361,1.67151
		C95.7795,431.68594,76.7682,426.93207,58.22496,419.50436z M256.96735,311.76483c0-3.06879,0-5.63846,0-8.48798
		c-12.60048,2.13458-29.53612-2.25946-35.38686,11.9249c0.15814,0.22562,0.31631,0.45129,0.47449,0.67691
		C233.65268,314.51205,245.25037,313.14545,256.96735,311.76483z M212.0034,329.89554
		c13.61525-0.99741,26.67738-3.07336,40.18614-4.65698c5.23474-0.42334,5.75323-1.73264,4.52078-6.84833
		c-12.72932,1.09637-25.43886,2.64029-38.15685,3.91278C215.38835,323.17975,214.56444,327.11697,212.0034,329.89554z
		 M200.64923,349.19186c18.62981-2.23804,39.97762,1.41782,56.34692-7.71594
		C252.22415,338.992,199.76201,341.78467,200.64923,349.19186z M178.30254,492.41083
		c0.32497,3.57712,3.12082,9.05548-1.11401,10.74759c-2.72003,0.60074-3.14436-2.1647-3.78912-3.94666
		c-2.21347-11.30966-12.22084-5.93582-20.85999-7.11676c2.73685,4.05969,2.41643,10.7778,7.31836,11.50842
		c7.43271,0.32553,14.48279,0.66104,22.01434,0.51407c0-4.56442,0-8.66553,0-13.15927
		C180.3613,491.57303,179.32469,491.99484,178.30254,492.41083z M241.84586,379.31104
		c-11.82576,2.41092-64.87627-6.17197-65.29886,6.04944C198.46863,384.31854,220.25627,383.32434,241.84586,379.31104z
		 M50.71926,466.50497c13.50692,5.07089,13.72407-6.85486,21.25453-15.39383
		C60.04966,443.29291,55.49523,457.72098,50.71926,466.50497z M73.63846,296.13425
		c-0.96799-4.41141,0.42046-9.34143-2.55937-13.40768c-4.13304,1.40741-7.95622,2.70932-12.1103,4.12393
		c0,5.00275,0,10.05646,0,15.83121C63.80228,300.52438,68.47468,298.439,73.63846,296.13425z M73.51578,24.03788
		c-4.44113,0.65963-8.84788,1.31414-13.04013,1.9368c0,5.38787,0,10.36294,0,15.59783
		c4.35638-0.7906,8.56585-1.55455,13.04013-2.36655C73.51578,34.12919,73.51578,29.23601,73.51578,24.03788z M59.49408,261.03851
		c0,6.65518,0,13.0274,0,19.43909c13.2356-4.2287,12.54672-4.47888,10.76112-17.85834
		C66.433,262.05783,62.96347,261.54816,59.49408,261.03851z M58.07757,341.0788c29.9982,4.54129,60.44329,6.52661,90.7365,8.51001
		c7.39532-0.26331,15.86656,3.26877,21.76964-3.06555C132.58214,348.17154,95.31983,345.53381,58.07757,341.0788z
		 M145.96698,73.49729c13.54358,2.50052,5.95239-8.86557,7.12155-17.17617c0.25391-3.8578-3.20392-3.34511-5.79404-3.24215
		C141.25792,55.12021,146.98152,67.70809,145.96698,73.49729z M54.63603,61.55221
		c9.09364,6.43712,15.53448,22.99126,27.32103,20.20591C74.43425,76.01873,64.86195,57.07304,54.63603,61.55221z
		 M232.81001,299.43381c8.28764-1.13263,16.21109-2.21545,24.12462-3.29697c0-2.26779,0-4.19305,0-6.78073
		C248.4093,291.48416,235.34071,288.25427,232.81001,299.43381z M56.41871,42.70082
		c-0.16856-5.01499,2.59443-16.87855-5.27308-15.82922c-2.25433,0.47287-4.06025,1.04355-3.63715,4.06536
		c0.0724,4.55912-0.01731,8.77582,0.39999,13.52115C51.06028,43.80729,53.63762,43.27509,56.41871,42.70082z M25.97555,481.10199
		c1.04336,11.71262,3.16515,12.19312,13.76427,15.38446C40.76794,481.50272,39.29009,484.12106,25.97555,481.10199z
		 M75.20494,263.79254c0,3.59653,0,6.62314,0,10.21991c8.35599-2.79526,16.40121-5.48657,24.44645-8.17786
		c-0.0596-0.32175-0.11919-0.64346-0.17879-0.96521C91.36096,265.08853,83.36402,262.703,75.20494,263.79254z M69.82307,83.16449
		c-7.77484-7.66331-13.60389-18.19244-24.35624-21.40975c-0.14242,0.25143-0.28484,0.50286-0.42725,0.7543
		C52.20918,68.9083,59.25041,85.97878,69.82307,83.16449z M294.86514,347.48953c0,6.16986,0,11.72964,0,17.81961
		c12.27606,0.47455,6.26852-11.75458,7.58432-20.29401C299.42514,346.00183,296.88034,346.83206,294.86514,347.48953z
		 M57.11131,144.7258c0.67218,5.96754-2.71305,20.35368,7.60424,15.10593c3.19763-3.57097-0.0363-10.38069,0.48663-15.10593
		C62.49277,144.7258,59.97429,144.7258,57.11131,144.7258z M56.24151,117.9269c11.82995-0.54174,10.05784-5.90488,8.62194-15.8102
		C52.45161,104.09608,55.0253,106.88373,56.24151,117.9269z M95.74554,455.90775
		c-10.30685-5.46555-11.30611,6.68863-14.86398,13.19254C90.66989,472.82056,91.90813,462.54489,95.74554,455.90775z
		 M59.62825,183.20679c10.39316-0.61697,5.98177-10.56627,6.1947-17.91568c-2.32882,0.31586-4.63852,0.62912-7.24245,0.98232
		C59.01484,171.89304,57.58374,177.61342,59.62825,183.20679z M353.66,102.84303c0.20581,0.12762,0.41159,0.25524,0.6174,0.38287
		c2.72824-3.8212,10.10101-12.46758,0.92096-12.61308c-9.41791,3.29323-13.53156,14.41776-18.42853,22.38331
		c5.1167-4.37091,9.90256-16.84978,17.94897-12.64057C354.32443,101.28204,353.99222,102.06253,353.66,102.84303z
		 M35.89711,459.77612c8.1301,14.50549,12.09531-10.58044,16.94102-16.18015
		C44.68195,446.40308,41.57553,454.25418,35.89711,459.77612z M81.6692,453.44922
		c-6.44166-4.34644-11.75961,11.06882-15.25459,15.66425C77.15693,471.84894,77.76417,460.80902,81.6692,453.44922z
		 M280.34042,366.66956c8.95718,1.53375,6.57224-7.41327,6.76105-13.3869c0.29782-5.82996-2.37134-4.07739-6.76105-3.4686
		C280.34042,355.50201,280.34042,361.01105,280.34042,366.66956z M293.28537,439.31104
		c7.76724-1.91602,11.63058-10.76892,6.35059-16.32504C291.80585,424.98721,291.49084,432.46042,293.28537,439.31104z
		 M237.00015,502.46329c0-4.46826,0-8.71271,0-13.24213c-13.58069-1.69095-7.74513,4.16461-6.67918,13.71948
		C232.30072,502.79913,234.53801,502.63925,237.00015,502.46329z M249.54419,75.67971
		c9.66626,1.09836,12.9884-8.34886,18.05984-14.59869C257.96658,59.48638,254.16133,68.75903,249.54419,75.67971z
		 M163.48857,53.24913c-1.6248,0-3.05313,0-4.21329,0c0,6.60395,0,12.9982,0,19.42927c2.15141,0,3.85217,0,5.96495,0
		C164.64487,66.07462,164.07053,59.70419,163.48857,53.24913z M206.80135,337.52328
		c0.13593,0.33228,0.27187,0.66455,0.40779,0.99683c15.49138-2.38214,31.30286-2.24432,46.59535-6.23712
		C238.66147,332.966,221.09413,331.81409,206.80135,337.52328z M58.94116,213.51942
		c8.27471-2.25862,9.91777-2.80574,8.05952-11.55426c-0.23173-0.96909-2.35219-2.26088-3.36951-2.07037
		C56.43779,200.97385,59.39009,208.05016,58.94116,213.51942z M20.96528,35.65019c-2.80645,1.01949-6.88166,0.07364-7.34667,3.43107
		c1.24468,4.58423-0.4197,16.44786,7.34667,12.45804C20.96528,46.37055,20.96528,41.30544,20.96528,35.65019z M32.71391,48.36244
		c-0.92942-5.2462,0.61897-10.69097-1.85736-15.68302c-9.35046,1.20821-3.86617,10.7871-4.247,17.24568
		C28.76223,49.37403,30.53127,48.92118,32.71391,48.36244z M267.66116,368.21164c-0.21951-4.61475,2.04013-21.1792-6.16425-14.67508
		c-0.23621,5.11575-0.13199,10.24655-0.13199,15.34561C263.49106,368.65576,265.23309,368.47021,267.66116,368.21164z
		 M264.68716,267.77844c-14.04393,1.99548-27.94237,3.26498-40.71393,9.55078
		C232.33841,274.99326,262.09647,273.88129,264.68716,267.77844z M99.43153,55.51579
		c6.62862,6.56861,11.6248,18.05829,20.64044,20.60737C114.53355,69.98884,108.42576,53.00372,99.43153,55.51579z
		 M43.30273,45.40523c-0.99623-4.68707,2.98568-15.17817-3.86513-15.44396c-5.2269,3.03643-0.59864,11.36143-1.21708,16.90838
		C40.24133,46.28737,41.63694,45.88523,43.30273,45.40523z M34.52443,63.97025c-0.05147,0.36558-0.10294,0.73116-0.1544,1.09673
		c7.34491,6.46711,14.68981,12.93422,22.03471,19.40133c0.18982-0.1834,0.37963-0.36681,0.56945-0.55021
		C49.88978,77.63013,45.14082,60.54429,34.52443,63.97025z M281.6376,442.66275c2.66437-1.07935,6.09329-0.9104,7.92456-2.84802
		c-0.01196-3.48334,1.23602-7.09869-0.52179-10.04544C280.43503,430.21442,280.8945,436.26334,281.6376,442.66275z
		 M58.74167,312.65057c4.71355-1.13394,8.75122-3.77124,13.19322-5.63126c3.50963-1.61472,3.51767-1.59674,2.78289-6.31747
		C69.65927,304.509,56.41771,304.06772,58.74167,312.65057z M59.25392,226.91075c2.52719-1.01706,4.853-2.02592,7.22976-2.89059
		c3.72235-1.3611,1.98178-8.6002-1.7734-7.56213C56.77917,216.86728,58.25589,220.79871,59.25392,226.91075z M295.603,470.98724
		c-3.93408-3.90439-8.66217-12.92987-14.40167-7.05264C286.94168,471.87766,290.55643,473.71188,295.603,470.98724z
		 M65.51248,121.77278c-8.72781,0.7785-9.76308,1.00857-9.00113,10.25175C64.00054,130.97273,66.60351,129.97107,65.51248,121.77278
		z M59.17585,248.74837c-1.42403,9.38402,3.01609,7.94093,10.29521,8.30791
		C70.94656,248.03409,66.21492,249.51373,59.17585,248.74837z M300.36945,247.60455
		c-0.12515-2.95303,1.0582-5.89082-0.37692-8.31978c-2.8111,0-5.18311,0-7.64786,0c0,3.22253,0,6.05597,0,9.11746
		C294.99976,248.13831,297.50876,247.88892,300.36945,247.60455z M138.62231,438.48132
		c0.08786,0.3609,0.1757,0.7218,0.26355,1.08273c15.75909-0.39465,31.51817-0.78928,47.27727-1.18393
		c-0.00592-0.34448-0.01183-0.689-0.01775-1.03348C170.48871,438.27948,153.74756,435.45642,138.62231,438.48132z
		 M293.87103,305.78067c7.21503,0.35336,9.01822-1.957,7.45776-8.92365
		C293.74277,297.59595,291.26263,297.00937,293.87103,305.78067z M208.34352,504.49081
		c4.67918,0.69006,5.10098,0.37323,5.1322-4.22336c-0.09746-4.19855,1.19971-11.10889-5.1322-9.5054
		C208.34352,495.5567,208.34352,499.9274,208.34352,504.49081z M301.12485,219.03641
		c-7.27112-1.67426-10.51865,1.09801-8.66019,7.21852c2.84091,0,5.69815,0,8.66019,0
		C301.12485,223.7737,301.12485,221.47098,301.12485,219.03641z M272.22516,350.94098
		c0.21072,5.73245-2.992,12.47452,1.82556,16.60709c3.47925-4.57535,1.03842-11.08841,1.70752-16.60709
		C274.33441,350.94098,273.30777,350.94098,272.22516,350.94098z M160.05867,32.419
		c-11.21123-0.48645-45.72601-1.71637-49.5565,1.86021C127.021,33.65914,143.53984,33.03907,160.05867,32.419z M202.34779,490.84103
		c-7.1431-1.54453-2.98267,9.44296-3.99266,13.73883c1.53598,0,2.98291,0,4.83549,0
		C202.90726,499.96048,202.63551,495.53125,202.34779,490.84103z M273.99045,250.26331
		c2.14835-15.63591-8.37265-11.43916-5.95438,1.09167C270.33151,250.93413,272.02402,250.62383,273.99045,250.26331z
		 M302.3613,121.42236c0.15387-0.2813,0.30777-0.56263,0.46164-0.84396c-2.69025-6.64996-9.10471-4.78911-14.3653-6.184
		c0,1.52522,0,2.74282,0,4.27728C293.10568,119.59125,297.73349,120.50681,302.3613,121.42236z M68.78244,244.19302
		c1.52575-7.78091-3.98357-6.77446-9.47488-7.45612c0,2.56584,0,4.40968,0,6.19186
		C62.42473,243.3447,65.3714,243.73787,68.78244,244.19302z M93.64072,21.97403c-7.08041-2.33426-5.27596,5.99991-5.93465,10.26948
		C95.61433,34.22388,93.29113,26.97625,93.64072,21.97403z M297.22775,493.89172c0-4.35852,0-8.58911,0-12.7179
		c-1.39368,0-2.57602,0-3.76913,0c0,4.70111,0,9.19205,0,14.02457C294.92487,494.69006,296.12463,494.27414,297.22775,493.89172z
		 M108.87666,76.48826c0.21834-0.23394,0.43668-0.46789,0.65502-0.70183c-5.98248-6.06259-11.08988-16.05841-18.75282-19.26364
		c-0.16959,0.30422-0.33919,0.60844-0.50878,0.91265C96.47227,63.78639,102.67446,70.13732,108.87666,76.48826z
		 M294.27942,332.49326c-1.0289,7.57614,1.88242,7.07254,8.01056,5.84735c0-2.36172,0-4.63196,0-7.25183
		C299.50897,331.57639,296.95776,332.02365,294.27942,332.49326z M283.7164,248.91063
		c-0.06375-2.93982,0.16928-5.71855-0.16217-8.62589c-2.00626,0-3.875,0-6.02158,0
		C277.98587,246.05714,275.35406,252.41647,283.7164,248.91063z M301.09476,147.28961
		c-6.64426-0.5757-10.59155-2.01341-8.41159,6.57812C297.45724,155.18166,299.82742,153.3916,301.09476,147.28961z
		 M219.37572,490.25375c0,4.61987,0,9.2114,0,14.0929c1.8831-0.46707,3.22546-0.86316,4.90404-1.42987
		C223.73854,493.97119,222.5244,490.7851,219.37572,490.25375z M293.25656,26.53283c1.1026,5.47127-0.66147,10.2279,6.68127,8.74916
		C302.0238,27.96388,300.21182,27.23462,293.25656,26.53283z M262.74173,76.79137
		c7.68198,2.50096,10.43195-7.26243,12.59515-12.71371c-0.23972-0.12329-0.47943-0.24657-0.71918-0.36987
		C270.78839,67.92652,266.95905,72.14524,262.74173,76.79137z M307.17963,469.60553
		c0.26166-0.32376,0.52332-0.64752,0.78497-0.97125c-3.61154-2.06769-7.45984-11.66464-11.84866-7.63538
		C299.18594,464.77011,300.59113,470.71033,307.17963,469.60553z M268.10812,381.12671
		c-6.51093-0.4632-7.50778,1.61349-6.84229,7.89749C268.59592,390.00592,268.50598,387.4509,268.10812,381.12671z
		 M206.55872,324.38333c0.26984,0.1702,0.53967,0.34033,0.80951,0.51053c8.20107-12.70914,16.40213-25.41824,24.60318-38.12738
		c-0.33928-0.22464-0.67856-0.44931-1.01785-0.67401C222.82195,298.85611,214.69032,311.61972,206.55872,324.38333z
		 M98.68645,388.6329c0.01949,0.24908,0.03898,0.49817,0.05848,0.74725c13.16811,0.9101,26.31603,2.61392,39.5363,1.47482
		c0.0072-0.26154,0.01443-0.52313,0.02165-0.7847C125.09741,389.59116,111.89194,389.11203,98.68645,388.6329z M301.28748,376.12186
		c-6.72516-0.37143-6.88303,2.89072-6.41492,8.76453c2.23087-0.46695,4.14255-0.86707,5.9483-1.24503
		C300.99249,380.87546,301.13867,378.51981,301.28748,376.12186z M188.66667,491.4884
		c-0.3392,4.56824-0.65717,8.85004-0.98944,13.32486c1.41638-0.1041,2.91664-0.21436,4.08345-0.30011
		c0-4.65222,0-8.78928,0-13.02475C190.51126,491.4884,189.66383,491.4884,188.66667,491.4884z M274.15472,166.44698
		c3.23196,0.31273,6.25677,0.60541,9.62189,0.931c1.53543-7.08788-5.08713-5.04669-9.62189-5.25958
		C274.15472,163.74675,274.15472,164.98497,274.15472,166.44698z M279.85971,308.10767
		c6.35953-0.63266,5.78433-2.02094,4.547-6.82919c-0.46127-1.7926-1.86093-2.17447-3.58459-1.74985
		C276.87601,300.58286,279.80057,305.20508,279.85971,308.10767z M286.93665,378.32309
		c-2.20206,0.45676-4.04074,0.83813-5.88214,1.22009c0,2.5509,0,4.9191,0,7.62363c2.06204-0.3804,3.90918-0.72113,5.88214-1.08511
		C286.93665,383.62076,286.93665,381.25943,286.93665,378.32309z M260.88171,302.71133c0,2.79431,0,5.42093,0,8.24557
		c1.84918-0.38306,3.50967-0.72705,5.05038-1.04623c0-2.79761,0-5.42633,0-8.40146
		C264.09027,301.94763,262.50275,302.3255,260.88171,302.71133z M59.42023,188.81172c0,2.08522,0,3.88376,0,5.78699
		c4.89605-0.64032,8.64209-1.74791,7.41028-7.60359C64.03001,187.68164,61.75198,188.2401,59.42023,188.81172z M302.03192,134.01427
		c-4.34509-0.50958-10.23206-3.4576-8.91116,3.54907c3.0506,0.37904,5.90701,0.73395,8.91116,1.10721
		C302.03192,136.739,302.03192,135.42574,302.03192,134.01427z M293.81973,312.6218c0,1.49069,0,3.02393,0,5.04962
		c3.71454-1.09863,8.9285,0.24887,8.5228-5.17365C300.28458,310.57083,296.55161,312.45142,293.81973,312.6218z
		 M292.61786,290.66153c3.19049-0.36923,5.75342-0.6658,8.75528-1.01318c-0.29013-1.8349-0.42752-4.79437-0.8179-4.82913
		C295.83182,284.57956,292.30472,284.1929,292.61786,290.66153z M270.65231,301.46255c0,2.75616,0,5.28381,0,8.12354
		c1.64062-0.39847,3.02548-0.73477,4.35016-1.05649c0-2.73022,0-5.3266,0-8.12509
		C273.40805,300.79233,272.07224,301.11722,270.65231,301.46255z M308.37589,477.96521
		c-0.50195,4.69662-0.96301,9.01108-1.45526,13.61707c1.50183-0.4899,2.55731-0.83423,3.569-1.16425
		C311.34866,482.71451,310.92542,479.19785,308.37589,477.96521z M309.92624,30.13152
		c-2.23035-0.57145-4.05701-1.03946-6.29886-1.61386c0.36133,2.69588,0.67142,5.0095,0.98233,7.32954
		c1.50687,0.362,2.89178,0.69471,4.2774,1.02758C309.25671,34.47638,309.57773,32.39308,309.92624,30.13152z M282.75708,42.3138
		c0,2.04084,0,3.80476,0,5.53232c6.082,2.24352,6.73514,1.73694,5.81955-4.68543
		C286.76285,42.89674,284.87668,42.62226,282.75708,42.3138z M279.18991,335.49411c-0.23547,8.84665,6.7937,6.14917,6.97253-1.259
		C283.47134,334.72101,281.61383,335.05643,279.18991,335.49411z M260.90543,323.8183
		c3.44583-0.4277,7.25659-0.98709,5.78113-5.64734c-0.85889-3.02545-3.87537-0.16669-5.78113-0.33902
		C260.90543,319.88004,260.90543,321.72461,260.90543,323.8183z M288.38632,418.7774
		c1.13907-5.11404-3.49533-4.89432-6.74088-3.59698c0,1.78769,0,3.3786,0,5.26157
		C283.94412,419.87433,286.05072,419.35416,288.38632,418.7774z M82.55534,23.59095
		c-0.28987-0.22253-0.57974-0.44507-0.86961-0.6676c-3.83404,1.79147-3.67711,8.52826-0.91263,11.32495
		C83.58639,31.2903,82.37009,27.28552,82.55534,23.59095z M300.32614,266.05121c1.60968-6.79846-4.2327-3.18927-7.9834-3.02274
		c0,1.31506,0,2.43982,0,4.02997C295.06885,266.71451,297.61856,266.39279,300.32614,266.05121z M325.18918,56.2714
		c-0.83096-2.27396-1.52545-4.17427-2.34058-6.40487c-1.01907-0.21005-2.49976-0.51525-4.13391-0.85208
		c-0.2291,2.23682-0.42184,4.1189-0.61295,5.98463C320.71094,55.46747,323.01111,55.88039,325.18918,56.2714z M195.44633,511.83237
		c-0.00049-0.12012-0.00096-0.2403-0.00143-0.36041c-11.26517-0.45721-22.53032-0.9144-33.79547-1.37155
		C171.90819,514.29065,184.40503,510.70074,195.44633,511.83237z M278.34628,293.0834
		c8.76263-0.05264,7.56815-7.30225,2.3494-6.40427C276.61459,287.66849,280.09802,290.90698,278.34628,293.0834z
		 M265.35583,295.15527c0-2.33371,0-4.42929,0-6.95856c-1.77197,0.39612-3.31799,0.7417-4.61951,1.03265
		c0,2.20935,0,4.01483,0,5.9259C262.3566,295.15527,263.73254,295.15527,265.35583,295.15527z M279.08887,313.89383
		c0.44833,2.76657,0.73032,4.50638,1.01224,6.24615C288.03717,320.0914,286.48822,314.27698,279.08887,313.89383z
		 M269.83395,287.74832c0.00003,2.24622,0.00003,3.89685,0,5.96213c5.6188,0.57935,6.42953-0.47427,4.965-5.96213
		C273.25916,287.74832,271.70789,287.74832,269.83395,287.74832z M294.80228,50.14132
		c1.82974,0.19851,3.42038,0.3711,5.15939,0.55978c0-2.09803,0-3.84539,0-5.65982c-1.71719-0.34285-3.35184-0.66922-5.15939-1.03011
		C294.80228,46.23326,294.80228,48.07219,294.80228,50.14132z M57.24249,138.6062c2.4874,0.53317,11.89056-0.24318,6.47965-3.73576
		C60.93109,134.33928,55.74149,134.07138,57.24249,138.6062z M98.84905,20.66425c0.48523,3.7859-1.69966,7.97037,1.30437,10.04589
		C103.78043,29.13845,102.47184,23.2284,98.84905,20.66425z M326.26004,39.57086c0.86615-3.46838-1.28458-5.236-6.51462-5.27112
		c0.08524,1.49108,0.16956,2.96612,0.25119,4.39413C322.28564,39.01437,324.27631,39.2931,326.26004,39.57086z M286.99377,482.28098
		c-0.31143,0.03275-0.6228,0.06549-0.9342,0.09821c0.46539,4.52509,0.93076,9.05017,1.41211,13.73007
		C290.31534,493.71652,289.99707,487.24509,286.99377,482.28098z M261.50195,343.71756
		c2.25845-1.02353,5.37796,0.32788,5.85037-2.6622c0.37448-2.37027-1.51367-3.33337-4.26553-2.91428
		C259.02765,338.75919,261.62646,341.33975,261.50195,343.71756z M270.94046,321.71954
		c2.54514-0.2995,5.05643,0.86667,5.14819-2.53943c0.05087-1.88947-0.20782-3.73093-2.79333-3.5137
		C268.36575,316.08057,272.31674,319.53452,270.94046,321.71954z M272.58594,380.00598c0,2.93411,0,5.57385,0,8.2092
		c3.28906,0.13629,4.16577-2.5148,2.76077-8.2092C274.52432,380.00598,273.67892,380.00598,272.58594,380.00598z
		 M300.79782,411.58679c-5.50967,0.08957-7.01855,1.32306-6.34009,5.04968
		C299.94003,416.05063,301.24435,415.05054,300.79782,411.58679z M268.00931,398.32883
		c-2.2431,0.43085-4.09598,0.78671-5.82687,1.11917c0,1.38983,0,2.59094,0,4.15167c2.12524-0.47699,3.96753-0.89044,5.82687-1.30777
		C268.00931,401.00912,268.00931,399.87845,268.00931,398.32883z M274.46243,269.03757c0-1.35602,0-2.29315,0-3.6041
		c-2.12225,0.401-4.03922,0.76318-5.90933,1.11652c0,1.18976,0,2.18771,0,3.5275
		C270.68222,269.70279,272.54202,269.37549,274.46243,269.03757z M275.9791,335.89981
		c-5.58862,1.93539-5.58862,1.93539-3.53549,6.3645c1.04022-0.33694,2.09915-0.68002,3.27792-1.06186
		C275.80249,339.53561,275.88077,337.92462,275.9791,335.89981z M304.55264,45.77704
		c-1.75125,8.02139,4.18848,8.97089,3.95975,1.39046C307.28339,46.73594,306.21677,46.36139,304.55264,45.77704z
		 M261.36343,412.35492c5.36725,0.92438,7.52991-0.00845,7.09518-2.96616
		C263.48499,408.89166,262.0481,409.45197,261.36343,412.35492z M281.03284,400.57248
		c2.7522-0.73251,5.82767,0.20535,6.45389-3.17169c-2.03699-1.63016-4.12543-0.38992-6.45389-0.01273
		C281.03284,398.29178,281.03284,399.1514,281.03284,400.57248z M322.21664,476.34955c0,3.5383,0,6.70477,0,9.92096
		C325.51086,484.93927,325.58636,480.80423,322.21664,476.34955z M314.69449,465.24792
		c-1.88354-2.97659-2.77271-6.9494-7.4837-8.16962C308.96887,461.12534,311.05188,463.90503,314.69449,465.24792z
		 M278.32901,268.17841c5.46844,0.44815,5.74173,0.22266,4.93723-4.19168c-1.65631,0.38892-3.29865,0.77454-4.93723,1.15927
		C278.32901,266.30148,278.32901,267.17496,278.32901,268.17841z M279.65485,182.86246c-1.88181,0-3.22025,0-4.62286,0
		c0,2.30603,0,4.50911,0,7.48633C276.75974,187.55084,278.04684,185.46651,279.65485,182.86246z M249.4364,282.73798
		c5.43999,0.58658,7.00296,0.01907,7.48242-2.7168C253.23134,279.54688,249.76759,280.80453,249.4364,282.73798z M280.52737,408.789
		c0.17538,0.25064,0.35071,0.50128,0.52609,0.75192c2.23108-0.38135,4.84546,0.76559,6.63931-1.90341
		C285.39368,404.67657,282.23441,406.48239,280.52737,408.789z M294.92035,407.70673
		c2.13773-1.67151,5.50925-0.30908,6.41986-4.39185c-2.37973,0.37497-4.34775,0.68509-6.41986,1.01163
		C294.92035,405.40488,294.92035,406.2637,294.92035,407.70673z M269.07376,280.70847
		c2.55914-0.3053,4.59518,0.1698,6.19086-1.89767c-1.70898-2.36948-3.64407-1.52768-5.97531-0.77878
		C269.21326,278.97644,269.15015,279.76007,269.07376,280.70847z M278.85977,279.4444
		c1.97372-0.29218,3.63312-0.53784,5.37991-0.79642c-0.16855-1.13669-0.28888-1.94815-0.38794-2.61612
		c-1.7063,0.18726-3.20755,0.35202-4.82803,0.52982C278.97003,277.50558,278.92151,278.35886,278.85977,279.4444z
		 M275.52643,416.35339c-2.57864-0.04227-3.22037,1.82748-2.01767,5.53192
		C276.11758,421.46252,276.11758,421.46252,275.52643,416.35339z M300.8718,394.68469
		c-2.12357,0.55429-5.16254-1.00476-6.38687,3.13318C297.11249,396.97784,299.90897,398.17392,300.8718,394.68469z
		 M300.51837,275.88135c-0.04126-0.24228-0.08252-0.48453-0.12378-0.72681c-4.21899-1.05048-6.61285-0.59671-8.07086,2.0574
		C295.32901,276.72397,297.92371,276.30264,300.51837,275.88135z M259.94226,281.95273
		c2.36581,0.19464,6.35516-0.72955,4.33575-3.41235C261.79553,278.85513,259.84589,278.51538,259.94226,281.95273z
		 M275.69827,397.88699c-3.59146-1.38089-4.15759,3.03165-1.50604,3.88812
		C276.68518,401.41913,275.47775,399.43896,275.69827,397.88699z M94.42551,35.65319
		c-2.37379-2.25843-5.07133-1.849-6.96269,1.18515C89.92392,36.41943,91.9801,36.06944,94.42551,35.65319z M297.41391,212.77991
		c3.41055,0.40851,3.99551-0.11011,3.61096-3.10022C298.73599,209.28964,297.6236,210.31232,297.41391,212.77991z
		 M282.78653,174.31985c0.01932-0.26854,0.0386-0.53709,0.05795-0.80563c-2.62073,0-5.24152,0-7.86224,0
		c-0.00113,0.26854-0.00226,0.53709-0.00342,0.80563C277.58142,174.31985,280.18396,174.31985,282.78653,174.31985z
		 M81.56982,64.64009c0.18645-0.17487,0.37291-0.34974,0.55936-0.52461c-1.7885-2.00073-3.577-4.00146-5.36549-6.00218
		c-0.2078,0.19452-0.4156,0.38905-0.6234,0.58358C77.95013,60.67796,79.75997,62.65902,81.56982,64.64009z M258.83276,258.82635
		c2.41864,2.40497,3.42844,2.28143,5.34631-0.27335C262.40729,258.64359,260.97211,258.71698,258.83276,258.82635z
		 M266.55429,330.68823c-0.06674-0.34283-0.13351-0.68564-0.20029-1.02847c-1.81927,0.22189-3.91013-0.67273-5.33203,1.18298
		c0.05792,0.27563,0.11588,0.55127,0.1738,0.82687C262.98196,331.3425,264.76813,331.01538,266.55429,330.68823z
		 M275.78308,410.93268c-0.05869-1.23172-0.10263-2.1546-0.14658-3.07742c-0.26489-0.12079-0.52979-0.24155-0.79465-0.3623
		c-0.69647,0.99234-1.39301,1.98468-2.41425,3.43973C273.9939,410.93268,274.74051,410.93268,275.78308,410.93268z"/>
	<path class="st0" d="M626.40497,45.78018c24.37848-0.37536,50.01337,2.49229,75.56641,6.31129
		c41.58252,6.26405,85.68927,18.20505,124.62964-4.56099c3.14178-3.10858,6.33777,1.78514,2.08008,4.15008
		c-44.24182,31.73203-99.87683,22.06526-148.87671,9.46297c-19.50677-8.4507-34.95972,7.40176-45.76099,22.23919
		c-51.56683,59.63993-137.92188,319.04343-220.03937,305.58136c0.69211-0.7753,1.36096-2.20175,2.0799-2.22821
		c27.75021-4.03888,41.77576-34.27655,56.6806-55.19424c38.72379-62.8284,67.86401-131.0489,105.60352-194.44588
		c11.64374-19.39777,23.93396-38.34631,38.95795-55.2945c8.1225-13.42302,50.95984-29.99162,10.79651-31.55348
		C544.08167,46.9899,440.52618,87.1623,421.91919,179.43819c-3.23996,16.9498,0.23013,41.6566,21.33545,42.48438
		c3.80286,0.6125,3.54581,4.66335-0.32919,4.24551c-38.76016,1.61928-44.06049-47.21196-30.05515-74.93153
		C449.45322,70.27838,544.77386,44.97921,626.40497,45.78018z"/>
	<path class="st0" d="M662.02429,312.38922c-6.19434,8.1647-11.68134,16.86148-20.26788,22.77423
		c-12.211,9.40652-33.2049,2.50394-31.35486-15.1452c1.34229-29.12039,43.72681-64.12651,68.5885-40.38477
		c2.34314-2.1832,4.52136-5.52438,8.22101-5.17877c4.53424,0.40799,19.74133-2.03998,14.72552,6.48508
		c-88.21338,157.08032,93.48199,27.09134,145.29596-0.69739c1.27545-0.73685,3.18976-2.69971,4.31805-0.56091
		c1.11353,2.11053-1.66504,2.23227-2.80652,2.92648c-38.49463,19.88663-202.93262,146.2171-185.79224,30.17355
		C662.6427,312.65076,662.3335,312.51999,662.02429,312.38922z M672.22821,283.46872
		c-2.75677-29.40184-57.98785,40.1535-44.51788,50.35019C641.85785,339.50842,669.70178,296.05676,672.22821,283.46872z"/>
	<path class="st0" d="M1099.677,361.33469c-37.13269,0.09229-37.30298-38.89694-22.151-64.20078
		c6.0686-10.43613,13.4071-27.02094,27.90002-18.99597c3.22058,1.55548,3.50867,2.99976,1.73376,6.13788
		c-7.94189,15.34338-39.00757,68.99594-7.85852,72.65393c34.26611-0.65787,63.4353-22.64291,92.20679-39.12936
		c21.12598-13.02954,42.04443-26.41537,64.19275-37.64673c1.34509-1.16608,3.07837,0.60941,4.4209-0.42209
		c-24.48633,18.81335-56.38452,34.11325-83.94043,51.80838C1152.50891,345.40326,1127.65771,359.94077,1099.677,361.33469z"/>
	<path class="st0" d="M465.84229,458.25714c3.27759,0.27094,7.20062-1.24088,9.21295,1.98792
		c6.62637,11.03281,12.89639,22.1228,19.57825,33.14154c6.16922-10.69177,12.30411-21.06659,18.13855-31.61243
		c1.49847-2.70856,3.08038-4.06595,6.14526-3.55154c1.20142,0.20163,2.46326,0.03299,3.94836,0.03299
		c0,17.71945,0,35.33795,0,53.13409c-2.79938,0-5.67358,0-8.98492,0c0-11.11218,0-22.25049,0-33.38879
		c-0.21069-0.04922-0.42139-0.09845-0.63202-0.14767c-23.71762,37.76407-14.14392,36.94638-37.97144-0.39618
		c0,11.7244,0,22.69513,0,33.88641c-3.26065,0-6.28107,0-9.435,0C465.84229,493.75119,465.84229,476.19656,465.84229,458.25714z"/>
	<path class="st0" d="M551.87866,458.73819c10.43201,0,20.69867-0.4743,30.89844,0.15909
		c13.83759,0.43649,17.40314,18.16763,6.60394,25.0459c13.71692,5.5719,11.49713,25.12311-3.95416,26.98935
		c-11.15564,1.22519-22.20251,0.43063-33.54822,0.6337C551.87866,493.81613,551.87866,476.19904,551.87866,458.73819z
		 M561.79486,503.4263c7.54816-0.89957,26.72253,3.65012,26.59351-7.56769c-0.03839-3.63361-2.09796-6.48944-6.21014-6.76199
		c-6.72955-0.44601-13.50861-0.12061-20.38336-0.12061C561.79486,493.53247,561.79486,498.33911,561.79486,503.4263z
		 M561.78625,481.12808c6.17554-0.27783,12.07996-0.27383,17.91876-0.90009c3.95215-0.42392,6.02411-3.18625,6.01752-6.63232
		c-0.00659-3.47455-2.06818-6.3407-5.99072-6.63669c-5.91632-0.44638-11.8894-0.11639-17.94556-0.11639
		C561.78625,471.28412,561.78625,475.90512,561.78625,481.12808z"/>
	<path class="st0" d="M412.30853,512.10437c-13.73523,0.00067-24.37997-7.85553-27.49683-20.2934
		c-4.36765-17.42899,8.21918-33.86588,25.94348-34.13266c10.2912-0.15491,19.1004,2.92822,25.05734,11.73032
		C448.75012,487.92316,434.46002,513.21088,412.30853,512.10437z M393.98129,484.82855
		c-0.03238,10.69327,7.63715,18.54889,18.13025,18.57004c24.39764-0.0163,24.56119-36.50232,0.42776-36.97534
		C401.76935,466.36609,394.01385,474.05759,393.98129,484.82855z"/>
	<path class="st0" d="M1164.07568,458.47278c0,2.54037,0,5.0159,0,7.74084c-9.26538,0-18.50305,0-27.95593,0
		c0,4.74936,0,9.25842,0,14.02057c8.13928,0,16.31592,0,24.69568,0c0,2.77945,0,5.31406,0,8.10114c-8.17737,0-16.35461,0-24.72083,0
		c0,5.11246,0,9.97916,0,15.09662c9.62952,0,19.22009,0,28.98999,0c0,2.77936,0,5.31308,0,7.99231
		c-13.01794,0-25.95923,0-39.03955,0c0-17.64502,0-35.18951,0-52.95148
		C1138.64453,458.47278,1151.2948,458.47278,1164.07568,458.47278z"/>
	<path class="st0" d="M1200.75464,488.31085c0,5.23346,0,10.04062,0,15.09656c9.68713,0,19.27771,0,29.06177,0
		c0,2.77844,0,5.31183,0,8.00458c-12.97632,0-25.91833,0-39.0127,0c0-17.67014,0-35.2778,0-53.02106
		c12.68604,0,25.27307,0,38.00378,0c0,2.59534,0,5.07153,0,7.88672c-9.28979,0-18.59631,0-28.02771,0
		c0,4.78369,0,9.23224,0,13.93201c8.19641,0,16.37329,0,24.76746,0c0,2.77664,0,5.31219,0,8.1012
		C1217.41199,488.31085,1209.23499,488.31085,1200.75464,488.31085z"/>
	<path class="st0" d="M985.7041,511.42178c-13.00897,0-25.95044,0-39.03381,0c0-17.63687,0-35.18137,0-52.94617
		c12.59082,0,25.24109,0,38.02509,0c0,2.53149,0,5.00708,0,7.73282c-9.25671,0-18.49432,0-27.95007,0
		c0,4.74896,0,9.25821,0,14.02054c8.13031,0,16.30688,0,24.68982,0c0,2.77866,0,5.31207,0,8.10117c-8.16864,0-16.34583,0-24.7149,0
		c0,5.11206,0,9.97891,0,15.09659c9.62042,0,19.21094,0,28.98389,0C985.7041,506.20676,985.7041,508.74091,985.7041,511.42178z"/>
	<path class="st0" d="M868.09802,511.56485c-12.97174,0.22705-9.36865,0.8353-14.78497-10.05771
		c-0.41632-0.80685-1.59833-1.69537-2.44366-1.71027c-7.51495-0.13245-15.03406-0.13239-22.54895,0.00076
		c-0.83588,0.0148-2.00354,0.91888-2.41516,1.72653c-4.94067,10.31424-2.16644,10.4314-14.42059,10.04172
		c7.03729-17.2518,15.04578-34.05417,22.33527-51.20471c0.74054-1.69931,1.69794-1.9086,3.32825-2.19498
		c5.72809-1.00592,8.39313,1.4176,10.58344,6.81714C854.09222,480.75888,861.37756,495.90698,868.09802,511.56485z
		 M829.9953,491.50552c6.67926,0,12.82446,0,19.30426,0c-3.23492-7.6073-6.36829-14.9758-9.69952-22.80978
		C836.31396,476.49957,833.2168,483.85483,829.9953,491.50552z"/>
	<path class="st0" d="M682.56854,458.39938c3.26208,0,6.32465,0,9.66663,0c0.04114,10.54507-0.14911,21.00522,0.12909,31.53278
		c0.27753,10.0762,6.81616,15.10257,16.55841,13.13156c5.48309-1.10928,9.10339-5.04941,9.35736-11.42892
		c0.4118-11.09024,0.2442-22.08328,0.30853-33.20312c3.2677,0,6.30939,0,9.53912,0
		c0.49237,10.32953,0.10577,20.73376,0.1803,31.08566c-0.07281,10.2262-4.81348,17.86826-12.84967,20.96503
		c-9.68195,3.73096-21.4621,1.53583-27.61407-5.16904c-4.03375-4.39636-5.34357-9.8862-5.45563-15.60831
		C682.38104,479.28745,681.95959,468.76202,682.56854,458.39938z"/>
	<path class="st0" d="M791.95361,462.29645c-1.06769,2.66791-2.08185,5.20212-3.11761,7.79053
		c-7.11591-3.89264-15.5722-6.28632-22.94885-2.23615c-3.96057,2.65778-3.8894,7.63245,0.36267,9.74057
		c6.22479,2.80219,13.24786,3.86639,19.58923,6.42572c10.22333,3.41547,11.00885,18.54367,2.1333,24.13364
		c-10.0174,6.64435-26.28693,4.88617-35.81976-2.14111c1.13007-2.60501,2.21844-5.1138,3.39062-7.81589
		c4.33215,3.02893,8.90948,5.19827,13.98102,5.49243c5.0932-0.21933,14.41162,0.95221,14.82379-6.32916
		c0.09692-2.70593-1.49774-4.44141-3.77496-5.29565c-6.4303-2.38699-13.3139-3.69724-19.63226-6.3418
		c-10.33978-4.72861-8.85046-17.06903-3.75177-22.14145C766.15369,455.13379,781.71747,456.32498,791.95361,462.29645z"/>
	<path class="st0" d="M1087.14673,466.3269c-6.14001,0-12.12366,0-18.28723,0c0-2.72171,0-5.25739,0-7.93298
		c9.43091,0,18.75232,0,28.24597,0c0.36218,11.72537,0.09656,23.46277,0.0979,35.1958
		c0.04993,7.61072-2.85571,15.6333-10.83948,17.67142c-8.45459,2.60648-18.00134-0.01147-23.03564-6.52017
		c1.74158-2.15192,3.51611-4.34464,5.6521-6.98413c3.82446,7.31259,17.3468,9.57724,18.07874-0.75677
		C1087.34436,486.89612,1087.14673,476.77792,1087.14673,466.3269z"/>
	<path class="st0" d="M907.13947,466.23874c0,15.29211,0,30.15277,0,45.16919c-3.36163,0-6.49835,0-9.93011,0
		c0-14.95709,0-29.88516,0-45.02176c-5.82965,0-11.37158,0-17.099,0c0-2.75812,0-5.30807,0-7.99521
		c14.64923,0,29.21075,0,43.99512,0c0,2.51294,0,5.0502,0,7.84778C918.62335,466.23874,913.09344,466.23874,907.13947,466.23874z"/>
	<path class="st0" d="M1011.96716,458.34476c3.30945,0,6.38324,0,9.75281,0c0,14.99713,0,29.90991,0,45.06418
		c9.1709,0,18.05042,0,27.12512,0c0,2.77344,0,5.30676,0,8.00015c-12.25562,0-24.48547,0-36.87793,0
		C1011.96716,493.76956,1011.96716,476.16895,1011.96716,458.34476z"/>
	<path class="st0" d="M623.51727,458.34155c3.23499,0,6.30865,0,9.67767,0c0,14.95291,0,29.86594,0,45.1091
		c9.23517,0,18.18402,0,27.24994,0c0,2.80493,0,5.27942,0,7.93539c-12.27765,0-24.50903,0-36.92761,0
		C623.51727,493.81995,623.51727,476.21915,623.51727,458.34155z"/>
	<path class="st0" d="M399.03763,453.88989c-0.4566-6.86295,3.39267-11.41962,8.74606-10.59396
		c5.66519,0.90909,10.42691,10.58536,13.20978,0.52121c1.48517,0.07272,3.14508-0.21469,4.6188,0.23135
		c0.05945,10.07977-8.29788,12.53848-14.57767,6.7258c-4.03903-3.05887-4.76276-2.79239-7.20752,1.6619
		C403.25845,453.47229,400.7551,453.41516,399.03763,453.88989z"/>
	<path class="st0" d="M1107.09985,263.31982c-6.32202,0.52121-6.26001-10.16629,0.35144-9.23637
		C1113.52002,253.6387,1113.23279,264.08453,1107.09985,263.31982z"/>
</g>
</svg>
