<?xml version="1.0" encoding="utf-8"?>
<!-- Generator: Adobe Illustrator 24.1.0, SVG Export Plug-In . SVG Version: 6.00 Build 0)  -->
<svg version="1.1" id="Layer_1" xmlns="http://www.w3.org/2000/svg" xmlns:xlink="http://www.w3.org/1999/xlink" x="0px" y="0px"
	 viewBox="0 0 595.28 596.23" style="enable-background:new 0 0 595.28 596.23;" xml:space="preserve">
<style type="text/css">
	.st0{fill:#3EB92E;}
</style>
<path class="st0" d="M0.7,298.14C0.74,133.62,134.13-0.05,298.24,0c163.7,0.05,297.04,133.58,297.04,297.47
	c0,166.08-132.84,298.98-298.64,298.77C133.6,596.03,0.67,462.13,0.7,298.14z M360.91,463.11c14.22-0.05,27.68-2.84,40.67-8.23
	c18.96-7.87,33.38-21.69,47.19-36.2c5.03-5.28,6.24-12.07,3.13-18.91c-1.94-4.28-3.97-8.9-7.19-12.14
	c-14.2-14.28-28.47-28.6-46.34-38.46c-14.23-7.85-26.49-6.65-38.91,3.98c-6.55,5.61-12.74,11.66-19.02,17.58
	c-7.27,6.84-15.85,9.77-25.19,6.12c-7.77-3.04-15.56-6.87-22.17-11.9c-21.49-16.37-38.8-36.83-53.47-59.37
	c-5.09-7.82-8.87-16.8-11.67-25.75c-3.96-12.66,0.25-22.36,10.82-30.26c5.96-4.45,11.81-9.09,17.36-14.04
	c13.17-11.76,16.65-24.22,9.19-40.15c-6.21-13.26-14.11-25.8-22.03-38.16c-4.05-6.33-9.33-12.08-14.88-17.18
	c-8.06-7.41-17.58-7.61-26.5-1.29c-4.97,3.52-9.62,7.48-14.3,11.38c-14.11,11.76-25.87,25.32-32.63,42.74
	c-10.58,27.25-9.81,54.67-1.27,82.2c9.07,29.24,24.75,54.91,43.32,78.87c24.92,32.14,52.43,61.71,87.01,83.83
	C307.52,452.79,332.72,462.76,360.91,463.11z M298.06,96.74c-0.38,4.79-0.67,8.54-0.9,11.39c17.32,3.36,33.92,5.75,50.07,9.88
	c43.84,11.21,81.25,33.05,109.34,69.35c22.01,28.44,34.43,61.12,41.88,95.96c1.65,7.7,3.19,15.42,4.86,23.49
	c4.24-1,7.78-1.83,12.05-2.84c-3.74-15.81-6.77-31.26-11.07-46.34c-11.62-40.74-31.59-76.56-63.76-104.83
	c-30.56-26.86-66.59-42.23-106.03-50.17C322.63,100.25,310.58,98.74,298.06,96.74z M301.42,148.85c-0.46,4.37-0.84,7.99-1.23,11.66
	c88.59,11.55,137.65,62.73,152.05,149.6c3.61-0.41,7.23-0.82,11.44-1.3c-5.53-41.73-20.67-78.66-50.04-108.89
	C383.13,168.5,344.82,153.81,301.42,148.85z M410.59,308.81c-6.65-53.29-46.91-97-97.8-106.17c-1.06,3.6-2.12,7.23-3.25,11.08
	c23.5,7.12,44.55,17.4,61.5,34.94c17.16,17.76,24.31,40.08,28.42,64.14C403.8,311.25,407.23,310.02,410.59,308.81z M306.62,248.98
	c-0.84,3.92-1.6,7.47-2.34,10.95c26.33,9.36,31.65,14.55,47.62,46.21c3.53-1.13,7.11-2.27,10.63-3.39
	C355.98,276.41,329.94,251.39,306.62,248.98z"/>
</svg>
