<?xml version="1.0" encoding="utf-8"?>
<!-- Generator: Adobe Illustrator 24.1.0, SVG Export Plug-In . SVG Version: 6.00 Build 0)  -->
<svg version="1.1" id="Layer_1" xmlns="http://www.w3.org/2000/svg" xmlns:xlink="http://www.w3.org/1999/xlink" x="0px" y="0px"
	 viewBox="0 0 701.5 701.49" style="enable-background:new 0 0 701.5 701.49;" xml:space="preserve">
<style type="text/css">
	.st0{fill:#9640DF;}
</style>
<path class="st0" d="M700.05,375.2c-2.28,33.43-9.22,65.88-21.01,97.22c-23.94,63.64-63.02,116.17-117.18,157.21
	c-49.59,37.58-105.39,60.33-167.23,67.99c-8.21,1.02-16.43,1.92-24.65,2.88c-13,0-26,0-39,0c-1.42-0.32-2.83-0.84-4.26-0.93
	c-27.72-1.77-54.85-6.86-81.27-15.35c-64.59-20.75-119.01-56.97-162.54-109.02C31.79,514.1,4.57,443.42,1.31,363.85
	c-2.57-62.94,11.05-122.48,40.87-178.02c33.63-62.63,81.9-110.95,144.63-144.42c58.75-31.34,121.55-44.48,188.02-40.1
	c39.76,2.62,77.99,11.7,114.48,27.63c67.33,29.37,120.53,75.34,159.38,137.66c26.72,42.86,39.22,90.15,49.38,139.68
	c1.47,7.16,3.44,31.87,2.93,44.47 M352.07,527.4c38.16,0.9,75.71-3.34,112.34-14.67c50.33-15.57,78.21-50.82,88.5-101.1
	c6.07-29.64,7.61-59.81,7.02-90.02c-0.63-32.48-4.6-64.44-17.07-94.82c-9.49-23.11-23.75-42.37-45.65-55.19
	c-23.58-13.81-49.24-21.76-76.05-26.19c-36.18-5.98-72.61-6.6-109.1-3.94c-29.54,2.16-58.43,7.57-85.92,19.05
	c-15.94,6.66-30.82,15.15-42.93,27.71c-15.63,16.22-25.03,35.96-31.19,57.35c-6.35,22.06-8.83,44.71-9.59,67.58
	c-1,30.01-1.07,59.98,4.55,89.65c3.75,19.77,10.08,38.58,20.58,55.91c16.52,27.24,40.6,44.48,70.69,53.76
	c3.62,1.12,4.9,2.69,4.81,6.57c-0.28,12.83-0.19,25.66-0.06,38.49c0.04,3.47,0.38,7.01,1.16,10.39
	c2.73,11.78,14.09,16.48,24.43,10.12c2.38-1.46,4.63-3.33,6.51-5.39c12.68-13.91,25.3-27.89,37.8-41.96c2.17-2.44,4.3-3.5,7.67-3.41
	C331.08,527.57,341.58,527.4,352.07,527.4z"/>
<path class="st0" d="M255.08,524.06c0-11.67-0.07-23.34,0.05-35c0.03-2.75-0.75-4.08-3.55-4.94
	c-42.53-13.08-65.25-43.44-73.61-85.73c-6.79-34.34-5.13-69.02-2.44-103.62c1.51-19.35,5.87-38.09,13.9-55.93
	c11.3-25.13,30.42-41.55,55.74-51.41c26.39-10.27,53.93-14.86,82.01-15.85c34.52-1.22,68.97-0.23,102.84,7.81
	c16.42,3.9,32.34,9.18,47.21,17.29c22.15,12.07,33.34,32.36,40.74,55.26c9.17,28.43,11.53,57.82,10.29,87.4
	c-0.83,19.76-2.38,39.63-5.58,59.12c-5.12,31.17-19.3,57.29-47.54,73.94c-13.39,7.9-28.33,11.43-43.24,14.96
	c-34.13,8.08-68.78,10.31-103.72,8.74c-3.72-0.17-6.04,0.83-8.48,3.69c-17.26,20.32-34.74,40.46-52.15,60.65
	c-0.76,0.88-1.42,2.03-2.4,2.52c-2.53,1.26-5.2,2.21-7.82,3.29c-0.82-2.4-2.3-4.78-2.35-7.19c-0.25-11.66-0.11-23.33-0.11-35
	C254.95,524.06,255.02,524.06,255.08,524.06z M315.9,286.49c-1.15-3.42-1.61-7.32-3.58-10.19c-8.94-13.03-18.04-25.97-27.63-38.52
	c-5.04-6.6-11.08-7.77-18.77-4.5c-10.19,4.33-18.22,11.63-25,20.21c-6.75,8.55-9.24,18.02-4.45,28.46
	c5.96,13,11.66,26.13,18.05,38.92c32.48,64.98,86.13,105.3,152.61,130.62c7.59,2.89,14.72,2.1,21.58-1.82
	c11.06-6.32,18.85-15.84,24.73-26.84c3.48-6.52,3.4-13.5-2.49-18.82c-12.88-11.64-26.58-22.28-42.12-30.19
	c-7.7-3.92-16.01-1.9-21.72,4.59c-2.31,2.62-4.36,5.47-6.58,8.18c-4.55,5.53-9.59,7.07-16.41,4.97
	c-35.44-10.9-56.6-35.96-68.68-69.79c-1.94-5.44-0.06-10.54,4.45-14.36c2.8-2.37,5.77-4.53,8.58-6.88
	C312.78,296.95,315.5,292.55,315.9,286.49z M354.51,219.31c-1.16-0.06-2.33-0.12-3.49-0.17c-5.67-0.25-8.46,1.45-8.55,5.21
	c-0.09,3.67,2.64,5.57,8.26,5.95c4.81,0.32,9.67,0.43,14.41,1.21c34.92,5.77,60.9,23.87,76.33,56.12
	c7.54,15.76,9.92,32.71,10.44,49.99c0.12,3.82,1.54,6.78,5.71,6.68c4.16-0.1,5.58-3.09,5.37-6.93c-0.3-5.32-0.51-10.65-1.05-15.95
	C456.06,263.44,411.95,221.54,354.51,219.31z M433.71,323.61c-0.84-42.29-30.58-72.77-74.76-75.52c-3.46-0.22-6.08,1.06-6.61,4.6
	c-0.58,3.89,1.94,5.81,5.45,6.4c3.6,0.6,7.27,0.82,10.87,1.44c28.05,4.83,47.79,24.16,52.87,52c0.89,4.88,0.82,9.94,1.19,14.91
	c0.25,3.34,2.07,5.32,5.37,5.4c3.37,0.08,5.12-2.07,5.58-5.25C433.87,326.3,433.71,324.94,433.71,323.61z M404.98,316.07
	c-0.9-22.39-15.32-37.06-37.45-38.08c-3.37-0.15-6.03,0.86-6.57,4.56c-0.52,3.61,1.43,5.64,4.87,6.31c1.46,0.29,2.96,0.39,4.44,0.6
	c9.47,1.38,17.2,5.43,20.74,14.86c1.5,3.99,2.2,8.33,2.85,12.57c0.58,3.76,1.97,6.67,6.11,6.36
	C404.1,322.95,405.35,319.9,404.98,316.07z"/>
</svg>
